<?xml version="1.0" encoding="utf-8"?>
<!-- Generator: Adobe Illustrator 17.1.0, SVG Export Plug-In . SVG Version: 6.00 Build 0)  -->
<!DOCTYPE svg PUBLIC "-//W3C//DTD SVG 1.1//EN" "http://www.w3.org/Graphics/SVG/1.1/DTD/svg11.dtd" [
	<!ENTITY ns_extend "http://ns.adobe.com/Extensibility/1.0/">
	<!ENTITY ns_ai "http://ns.adobe.com/AdobeIllustrator/10.0/">
	<!ENTITY ns_graphs "http://ns.adobe.com/Graphs/1.0/">
	<!ENTITY ns_vars "http://ns.adobe.com/Variables/1.0/">
	<!ENTITY ns_imrep "http://ns.adobe.com/ImageReplacement/1.0/">
	<!ENTITY ns_sfw "http://ns.adobe.com/SaveForWeb/1.0/">
	<!ENTITY ns_custom "http://ns.adobe.com/GenericCustomNamespace/1.0/">
	<!ENTITY ns_adobe_xpath "http://ns.adobe.com/XPath/1.0/">
]>
<svg version="1.1" xmlns:x="&ns_extend;" xmlns:i="&ns_ai;" xmlns:graph="&ns_graphs;"
	 xmlns="http://www.w3.org/2000/svg" xmlns:xlink="http://www.w3.org/1999/xlink" x="0px" y="0px" viewBox="0 0 40 40"
	 style="enable-background:new 0 0 40 40;" xml:space="preserve">
<style type="text/css">
	.Drop_x0020_Shadow{fill:none;}
	.Round_x0020_Corners_x0020_2_x0020_pt{fill:#FFFFFF;stroke:#000000;stroke-miterlimit:10;}
	.Live_x0020_Reflect_x0020_X{fill:none;}
	.Bevel_x0020_Soft{fill:url(#SVGID_1_);}
	.Dusk{fill:#FFFFFF;}
	.Foliage_GS{fill:#FFDD00;}
	.Pompadour_GS{fill-rule:evenodd;clip-rule:evenodd;fill:#44ADE2;}
</style>
<metadata>
	<sfw  xmlns="&ns_sfw;">
		<slices></slices>
		<sliceSourceBounds  width="16383" height="32334.9" x="-7795" y="-16383" bottomLeftOrigin="true"></sliceSourceBounds>
	</sfw>
</metadata>
<linearGradient id="SVGID_1_" gradientUnits="userSpaceOnUse" x1="-87.4049" y1="-229.9069" x2="-86.6978" y2="-229.1998">
	<stop  offset="0" style="stop-color:#DEDFE3"/>
	<stop  offset="0.1738" style="stop-color:#D8D9DD"/>
	<stop  offset="0.352" style="stop-color:#C9CACD"/>
	<stop  offset="0.5323" style="stop-color:#B4B5B8"/>
	<stop  offset="0.7139" style="stop-color:#989A9C"/>
	<stop  offset="0.8949" style="stop-color:#797C7E"/>
	<stop  offset="1" style="stop-color:#656B6C"/>
</linearGradient>
<g id="Layer_1">
</g>
<g id="Layer_2">
	<g>
		<path d="M32.6,33l-1.8,2.1l-4-3c-1,0.5-2,0.9-3.1,1.3c-1.1,0.3-2.3,0.5-3.7,0.5c-4,0-7.1-1.3-9.4-3.9c-2-2.6-3-5.8-3-9.6
			c0-3.5,0.9-6.5,2.6-9c2.2-3.2,5.5-4.8,9.9-4.8C24.7,6.6,28,8,30.2,11c1.7,2.3,2.6,5.2,2.6,8.8c0,1.7-0.2,3.3-0.6,4.8
			c-0.6,2.3-1.7,4.3-3.1,5.7L32.6,33z M22.5,30.6c0.6-0.1,1.2-0.3,1.7-0.6l-2.8-2.2l1.8-2.2l3.4,2.6c1.1-1.2,1.8-2.6,2.2-4.1
			c0.4-1.5,0.6-3,0.6-4.3c0-3-0.8-5.5-2.4-7.3s-3.8-2.8-6.5-2.8c-2.8,0-5,0.9-6.6,2.7c-1.6,1.8-2.4,4.5-2.4,8.2
			c0,3.1,0.8,5.6,2.4,7.4c1.6,1.8,3.9,2.8,6.9,2.8C21.2,30.7,21.9,30.7,22.5,30.6z"/>
	</g>
</g>
</svg>
