<svg id="Layer_1" xmlns="http://www.w3.org/2000/svg" viewBox="0 0 792 1224"><style>.st0{fill:#777777;}</style><path class="st0" d="M621.1 270.8c5.5 8.8 4.4 16.4 6.6 24.1 78.9 90.9 108.4 213.6 162.1 305.6-4.4 11-3.3 20.8-14.2 15.3 5.5 16.4 14.2 32.9 16.4 49.3-30.7 24.1-46-9.9-59.2-32.9-16.4-31.8-44.9-66.8-62.4-107.4-18.6-46-31.8-94.2-54.8-127.1-3.3 30.7-8.8 77.8-18.6 97.5 2.2-1.1 2.2 1.1 3.3 3.3-21.9 77.8-39.4 165.4-81.1 239.9-13.1 25.2-32.9 46-49.3 70.1-8.8 13.1-13.1 34-29.6 35.1-1.1 12-20.8 31.8-31.8 42.7-30.7 30.7-65.7 59.2-100.8 80-50.4 29.6-100.8 36.1-153.4 48.2-29.6-9.9-51.5-5.5-87.6-6.6-19.7-1.1-50.4 0-60.2-6.6-2.2-1.1-14.2-21.9-1.1-31.8 11-7.7 34 9.9 50.4 13.1 35.1 5.5 78.9-4.4 124.9-7.7 105.2-8.8 185.1-82.2 246.5-175.3C505 681.6 554.3 583 563.1 462.5c-7.7 28.5-65.7 58.1-71.2 17.5 13.1-5.5 23 2.2 35.1-4.4 14.2-7.7 19.7-24.1 36.1-35.1-1.1-19.7-20.8-55.9 8.8-59.2 0-19.7-1.1-38.3 0-58.1-7.7-19.7-34-47.1-48.2-53.7-36.1 73.4-109.5 167.6-168.7 242.1-21.9 28.5-49.3 52.6-65.7 78.9-5.5 7.7-5.5 21.9-14.2 27.4-14.2 9.9-26.3-1.1-34-15.3 73.4-120.5 141.3-264 252-372.4 50.4-50.4 66.8-7.7 105.2 9.9 6.4 14.2 6.4 30.7 22.8 30.7zm-62.4-5.5c-2.2-9.9-7.7-20.8-18.6-31.8-3.3 2.2-5.5 5.5-8.8 7.7 9.8 10.9 18.6 10.9 27.4 24.1zm-94.2 52.6c-40.5 31.8-60.2 81.1-88.7 113.9 42.7-35.1 62.4-77.8 88.7-113.9zm245.3 175.2c7.7-7.7-3.3-16.4-6.6-24.1-17.5-40.5-46-97.5-75.6-140.2 9.9 55.9 47.2 108.5 82.2 164.3z"/></svg>