<svg xmlns="http://www.w3.org/2000/svg"><g id="nobodywrites"><path d="M57.7 79v-2.4h26.7v79h57.7z" id="underscore2"/><path d="M130.3 38.6h5.5l153 66.4v38.6h4.5v73h-5.2l-17.4-27.8v73h-4.5v38.6z" id="n_1_"/><path d="M229.3 43.5c2.3 3 3.4 6.9 3.4 11.7 0 5.1-1.3 9.4-3.9 12.8-3.1 4-7.4 6-13.1 6-5.3 0-9.5-1.8-12.5-5.2-2.7-3.4-4.1-7.6-4.1-12.8 0-4.7 1.2-8.6 3.5-12 3-4.2 7.4-6.4 13.2-6.4 221.9 37.6 226.4 39.6 229.3 43.5zm225.2 65.4c1.8-2.9 2.8-6.3 2.8-10.2 0-4.1-1.1-7.3-3.2-9.8-2.1-2.5-5-3.7-8.7-3.7-3.6 0-6.5 1.2-8.7 3.7-2.2 2.4-3.4 6.1-3.4 10.8 0 3.8 1 7 2.9 9.7 1.9 2.6 5.1 3.9 9.4 3.9C666 183.2 669 181.7 670.8 178.7z" id="o_2_"/><path d="M275.5 38.6h14.9c4.1 0 6.9 1.2 8.7 3.6 1 1.4 1.5 3.1 1.5 4.9 0 2.2-.6 4-1.9 5.3-.6.7-1.6 1.4-2.8 2 1.8.7 3.1 1.4 4 2.3 1.5 1.5 2.3 3.6 2.3 6.2 0 2.2-.7 4.2-2.1 6-2.1 2.7-5.4 4-10 4h-14.6v38.6zm288.7 53.1c2 0 3.5-.3 4.6-.8 1.7-.9 2.6-2.4 2.6-4.6 0-2.2-.9-3.8-2.8-4.5-1-.4-2.6-.7-4.6-.7h-8.4v10.7h288.7zm290.3 69c2.9 0 4.9-.8 6.2-2.5.8-1 1.2-2.3 1.2-3.8 0-2.5-1.1-4.2-3.4-5.1-1.2-.5-2.8-.7-4.8-.7h-9.3v69h290.3z" id="b"/><path d="M373.3 43.5c2.3 3 3.4 6.9 3.4 11.7 0 5.1-1.3 9.4-3.9 12.8-3.1 4-7.4 6-13.1 6-5.3 0-9.5-1.8-12.5-5.2-2.7-3.4-4.1-7.6-4.1-12.8 0-4.7 1.2-8.6 3.5-12 3-4.2 7.4-6.4 13.2-6.4 365.9 37.6 370.4 39.6 373.3 43.5zm369.2 65.4c1.8-2.9 2.8-6.3 2.8-10.2 0-4.1-1.1-7.3-3.2-9.8-2.1-2.5-5-3.7-8.7-3.7-3.6 0-6.5 1.2-8.7 3.7-2.2 2.4-3.4 6.1-3.4 10.8 0 3.8 1 7 2.9 9.7 1.9 2.6 5.1 3.9 9.4 3.9 364.4 69.9 367.4 68.4 369.2 65.4z" id="o_1_"/><path d="M418.5 38.6h13.8c4.7 0 8.3 1.7 10.9 5 2.3 3 3.4 6.9 3.4 11.6 0 3.7-.7 7-2 9.9-2.4 5.2-6.5 7.8-12.3 7.8h-13.7v38.6zm431.4 69c1.5 0 2.8-.2 3.8-.5 1.8-.6 3.2-1.8 4.4-3.5.9-1.4 1.6-3.2 1.9-5.3.2-1.3.3-2.5.3-3.6 0-4.3-.8-7.6-2.5-9.9-1.7-2.4-4.3-3.5-8-3.5h-8.1v69h431.4z" id="d"/><path d="M489.4 38.6h5.4l9.9 16.5 9.9-16.5h5.5l-13 20.6v73h-4.7v59.1l489.4 38.6z" id="y_1_"/><path d="M54.3 110.6l6.5 28 7.8-28h5l7.8 28 6.5-28h93l84 145H260l-7.9-28.5-8 28.5h-4.9l-9-34.4h54.3z" id="w"/><path d="M130.9 110.6h15.6c2.6 0 4.7.4 6.4 1.1 3.2 1.5 4.8 4.2 4.8 8.1 0 2.1-.4 3.8-1.3 5.1s-2 2.4-3.6 3.2c1.3.5 2.4 1.3 3 2.2s1.1 2.3 1.1 4.3l.2 4.6c0 1.3.2 2.3.3 2.9.3 1.1.8 1.8 1.5 2.1v.8h-5.7c-.2-.3-.3-.7-.4-1.1s-.2-1.4-.2-2.7l-.3-5.7c-.1-2.2-.9-3.8-2.4-4.5-.9-.4-2.2-.6-4.1-.6h-10.3v145h-4.7V386zm146 126.3c2.1 0 3.8-.4 5-1.3 1.2-.9 1.9-2.5 1.9-4.7 0-2.5-.9-4.1-2.6-5-.9-.5-2.2-.7-3.7-.7h-11.1V237h146z" id="r_2_"/><path d="M214 110.6h4.7v145h214v110.6z" id="i"/><path d="M302.4 110.6v4.1h-11.6v145h-4.7v-30.3h-11.6v-4.1h302.4z" id="t_2_"/><path d="M348.1 110.6h25v4.2h-20.4v10.5h18.9v4h-18.9V141h20.8v4.1h-25.3v110.6z" id="e_3_"/><path d="M422.7 133.9c.1 2 .5 3.5 1.3 4.8 1.5 2.3 4.1 3.4 7.9 3.4 1.7 0 3.2-.2 4.6-.8 2.7-1 4-2.7 4-5.2 0-1.9-.6-3.2-1.7-4-1.2-.8-3-1.5-5.4-2l-4.5-1.1c-3-.7-5-1.4-6.3-2.3-2.1-1.4-3.2-3.6-3.2-6.4 0-3.1 1-5.6 3.1-7.6s5-3 8.8-3c3.5 0 6.5.9 9 2.6 2.5 1.7 3.7 4.5 3.7 8.4h-4.4c-.2-1.8-.7-3.3-1.4-4.2-1.4-1.8-3.7-2.7-6.9-2.7-2.6 0-4.5.6-5.7 1.7s-1.7 2.5-1.7 4c0 1.7.7 2.9 2 3.7.9.5 2.9 1.1 6.1 1.9l4.7 1.1c2.3.5 4 1.3 5.2 2.2 2.1 1.6 3.2 3.9 3.2 7 0 3.8-1.4 6.5-4.1 8.2s-5.8 2.5-9.4 2.5c-4.2 0-7.4-1.1-9.8-3.3-2.4-2.2-3.5-5.1-3.5-8.8H841z" id="s_1_"/><path d="M490.7 151v-2.4h26.7v2.4h490.7z" id="underscore1"/><path d="M62.2 178.6h4.7v30.3h17.3v4.1h62.2v178.6z" id="l"/><path d="M132.1 178.6h25v4.2h-20.4v10.5h18.9v4h-18.9V209h20.8v4.1h-25.3v178.6z" id="e_2_"/><path d="M230.4 178.6v4.1h-11.6v213h-4.7v-30.3h-11.6v-4.1h230.4z" id="t_1_"/><path d="M302.4 178.6v4.1h-11.6v213h-4.7v-30.3h-11.6v-4.1h302.4z" id="t"/><path d="M348.1 178.6h25v4.2h-20.4v10.5h18.9v4h-18.9V209h20.8v4.1h-25.3v178.6z" id="e_1_"/><path d="M418.9 178.6h15.7c2.6 0 4.7.4 6.4 1.1 3.2 1.5 4.8 4.2 4.8 8.1 0 2.1-.4 3.8-1.3 5.1s-2 2.4-3.6 3.2c1.3.5 2.4 1.3 3 2.2s1.1 2.3 1.1 4.3l.2 4.6c0 1.3.2 2.3.3 2.9.3 1.1.8 1.8 1.5 2.1v.8h-5.7c-.2-.3-.3-.7-.4-1.1s-.2-1.4-.2-2.7l-.3-5.7c-.1-2.2-.9-3.8-2.4-4.5-.9-.4-2.2-.6-4.1-.6h-10.3v213h-4.7V590zm434 194.3c2.1 0 3.8-.4 5-1.3 1.2-.9 1.9-2.5 1.9-4.7 0-2.5-.9-4.1-2.6-5-.9-.5-2.2-.7-3.7-.7h-11.1V373h434z" id="r_1_"/><path d="M494.7 201.9c.1 2 .5 3.5 1.3 4.8 1.5 2.3 4.1 3.4 7.9 3.4 1.7 0 3.2-.2 4.6-.8 2.7-1 4-2.7 4-5.2 0-1.9-.6-3.2-1.7-4-1.2-.8-3-1.5-5.4-2l-4.5-1.1c-3-.7-5-1.4-6.3-2.3-2.1-1.4-3.2-3.6-3.2-6.4 0-3.1 1-5.6 3.1-7.6s5-3 8.8-3c3.5 0 6.5.9 9 2.6 2.5 1.7 3.7 4.5 3.7 8.4h-4.4c-.2-1.8-.7-3.3-1.4-4.2-1.4-1.8-3.7-2.7-6.9-2.7-2.6 0-4.5.6-5.7 1.7-1.2 1.2-1.7 2.5-1.7 4 0 1.7.7 2.9 2 3.7.9.5 2.9 1.1 6.1 1.9l4.7 1.1c2.3.5 4 1.3 5.2 2.2 2.1 1.6 3.2 3.9 3.2 7 0 3.8-1.4 6.5-4.1 8.2-2.7 1.6-5.8 2.5-9.4 2.5-4.2 0-7.4-1.1-9.8-3.3-2.4-2.2-3.5-5.1-3.5-8.8H985z" id="s"/><path d="M373.3 259.5c2.3 3 3.4 6.9 3.4 11.7 0 5.1-1.3 9.4-3.9 12.8-3.1 4-7.4 6-13.1 6-5.3 0-9.5-1.8-12.5-5.2-2.7-3.4-4.1-7.6-4.1-12.8 0-4.7 1.2-8.6 3.5-12 3-4.2 7.4-6.4 13.2-6.4 365.9 253.6 370.4 255.6 373.3 259.5zm369.2 281.4c1.8-2.9 2.8-6.3 2.8-10.2 0-4.1-1.1-7.3-3.2-9.8-2.1-2.5-5-3.7-8.7-3.7-3.6 0-6.5 1.2-8.7 3.7-2.2 2.4-3.4 6.1-3.4 10.8 0 3.8 1 7 2.9 9.7 1.9 2.6 5.1 3.9 9.4 3.9C1098 831.2 1101 829.7 1102.8 826.7z" id="o"/><path d="M70 254.6h5.3l87.8 289H158l-3.6-10.3H220l61.8 289h57l70 254.6zm77.7 274.9l-5.3-15.2-5.5 15.2h77.7z" id="a"/><path d="M130.3 254.6h5.5l17.2 27.8v-27.8h4.5v289h-5.2l-17.4-27.8v289h-4.5v254.6z" id="n"/><path d="M201.4 254.6h5.4l9.9 16.5 9.9-16.5h5.5l-13 20.6v289h-4.7v-13.9l201.4 254.6z" id="y"/><path d="M271.5 254.6h6.7l9.9 29.1 9.8-29.1h6.6v289H300v-20.3-3.5-5.2l-9.8 29h-4.6l-9.9-29v1.1c0 .8 0 2.1.1 3.9s.1 3 .1 3.8v289h-4.5V1067z" id="m"/><path d="M418.9 254.6h15.7c2.6 0 4.7.4 6.4 1.1 3.2 1.5 4.8 4.2 4.8 8.1 0 2.1-.4 3.8-1.3 5.1s-2 2.4-3.6 3.2c1.3.5 2.4 1.3 3 2.2s1.1 2.3 1.1 4.3l.2 4.6c0 1.3.2 2.3.3 2.9.3 1.1.8 1.8 1.5 2.1v.8h-5.7c-.2-.3-.3-.7-.4-1.1s-.2-1.4-.2-2.7l-.3-5.7c-.1-2.2-.9-3.8-2.4-4.5-.9-.4-2.2-.6-4.1-.6h-10.3v289h-4.7V818zm434 270.3c2.1 0 3.8-.4 5-1.3 1.2-.9 1.9-2.5 1.9-4.7 0-2.5-.9-4.1-2.6-5-.9-.5-2.2-.7-3.7-.7h-11.1V525h434z" id="r"/><path d="M492.1 254.6h25v4.2h-20.4v10.5h18.9v4h-18.9V285h20.8v4.1h-25.3v254.6z" id="e"/></g></svg>