<?xml version="1.0" encoding="utf-8"?>
<!-- Generator: Adobe Illustrator 17.1.0, SVG Export Plug-In . SVG Version: 6.00 Build 0)  -->
<!DOCTYPE svg PUBLIC "-//W3C//DTD SVG 1.1//EN" "http://www.w3.org/Graphics/SVG/1.1/DTD/svg11.dtd">
<svg version="1.1" id="Layer_1" xmlns="http://www.w3.org/2000/svg" xmlns:xlink="http://www.w3.org/1999/xlink" x="0px" y="0px"
	 viewBox="0 0 792 1224" style="enable-background:new 0 0 792 1224;" xml:space="preserve">
<style type="text/css">
	.st0{fill:#777777;}
</style>
<path class="st0" d="M621.1,270.8c5.5,8.8,4.4,16.4,6.6,24.1c78.9,90.9,108.4,213.6,162.1,305.6c-4.4,11-3.3,20.8-14.2,15.3
	c5.5,16.4,14.2,32.9,16.4,49.3c-30.7,24.1-46-9.9-59.2-32.9c-16.4-31.8-44.9-66.8-62.4-107.4c-18.6-46-31.8-94.2-54.8-127.1
	c-3.3,30.7-8.8,77.8-18.6,97.5c2.2-1.1,2.2,1.1,3.3,3.3c-21.9,77.8-39.4,165.4-81.1,239.9c-13.1,25.2-32.9,46-49.3,70.1
	c-8.8,13.1-13.1,34-29.6,35.1c-1.1,12-20.8,31.8-31.8,42.7c-30.7,30.7-65.7,59.2-100.8,80c-50.4,29.6-100.8,36.1-153.4,48.2
	c-29.6-9.9-51.5-5.5-87.6-6.6c-19.7-1.1-50.4,0-60.2-6.6c-2.2-1.1-14.2-21.9-1.1-31.8c11-7.7,34,9.9,50.4,13.1
	c35.1,5.5,78.9-4.4,124.9-7.7c105.2-8.8,185.1-82.2,246.5-175.3C505,681.6,554.3,583,563.1,462.5c-7.7,28.5-65.7,58.1-71.2,17.5
	c13.1-5.5,23,2.2,35.1-4.4c14.2-7.7,19.7-24.1,36.1-35.1c-1.1-19.7-20.8-55.9,8.8-59.2c0-19.7-1.1-38.3,0-58.1
	c-7.7-19.7-34-47.1-48.2-53.7c-36.1,73.4-109.5,167.6-168.7,242.1c-21.9,28.5-49.3,52.6-65.7,78.9c-5.5,7.7-5.5,21.9-14.2,27.4
	c-14.2,9.9-26.3-1.1-34-15.3c73.4-120.5,141.3-264,252-372.4c50.4-50.4,66.8-7.7,105.2,9.9C604.7,254.3,604.7,270.8,621.1,270.8z
	 M558.7,265.3c-2.2-9.9-7.7-20.8-18.6-31.8c-3.3,2.2-5.5,5.5-8.8,7.7C541.1,252.1,549.9,252.1,558.7,265.3z M464.5,317.9
	c-40.5,31.8-60.2,81.1-88.7,113.9C418.5,396.7,438.2,354,464.5,317.9z M709.8,493.1c7.7-7.7-3.3-16.4-6.6-24.1
	c-17.5-40.5-46-97.5-75.6-140.2C637.5,384.7,674.8,437.3,709.8,493.1z"/>
</svg>
