<?xml version="1.0" encoding="utf-8"?>
<!-- Generator: Adobe Illustrator 17.1.0, SVG Export Plug-In . SVG Version: 6.00 Build 0)  -->
<!DOCTYPE svg PUBLIC "-//W3C//DTD SVG 1.1//EN" "http://www.w3.org/Graphics/SVG/1.1/DTD/svg11.dtd">
<svg version="1.1" xmlns="http://www.w3.org/2000/svg" xmlns:xlink="http://www.w3.org/1999/xlink" x="0px" y="0px"
	 viewbox="0 0 576 360" style="enable-background:new 0 0 576 360;" xml:space="preserve">
<g id="nobodywrites">
	<g id="underscore2">
		<path d="m57.7,79v-2.4h26.7v79h57.7z"/>
	</g>
	<g id="n_1_">
		<path d="m130.3,38.6h5.5l153,66.4v38.6h4.5v73h-5.2l-17.4-27.8v73h-4.5v38.6z"/>
	</g>
	<g id="o_2_">
		<path d="m229.3,43.5c2.3,3,3.4,6.9,3.4,11.7c0,5.1-1.3,9.4-3.9,12.8c-3.1,4-7.4,6-13.1,6c-5.3,0-9.5-1.8-12.5-5.2
			c-2.7-3.4-4.1-7.6-4.1-12.8c0-4.7,1.2-8.6,3.5-12c3-4.2,7.4-6.4,13.2-6.4c221.9,37.6,226.4,39.6,229.3,43.5z m225.2,65.4
			c1.8-2.9,2.8-6.3,2.8-10.2c0-4.1-1.1-7.3-3.2-9.8c-2.1-2.5-5-3.7-8.7-3.7c-3.6,0-6.5,1.2-8.7,3.7c-2.2,2.4-3.4,6.1-3.4,10.8
			c0,3.8,1,7,2.9,9.7c1.9,2.6,5.1,3.9,9.4,3.9c220.4,69.9,223.4,68.4,225.2,65.4z"/>
	</g>
	<g id="b">
		<path d="m275.5,38.6h14.9c4.1,0,6.9,1.2,8.7,3.6c1,1.4,1.5,3.1,1.5,4.9c0,2.2-0.6,4-1.9,5.3c-0.6,0.7-1.6,1.4-2.8,2
			c1.8,0.7,3.1,1.4,4,2.3c1.5,1.5,2.3,3.6,2.3,6.2c0,2.2-0.7,4.2-2.1,6c-2.1,2.7-5.4,4-10,4h-14.6v38.6z m288.7,53.1
			c2,0,3.5-0.3,4.6-0.8c1.7-0.9,2.6-2.4,2.6-4.6c0-2.2-0.9-3.8-2.8-4.5c-1-0.4-2.6-0.7-4.6-0.7h-8.4v10.7h288.7z m290.3,69
			c2.9,0,4.9-0.8,6.2-2.5c0.8-1,1.2-2.3,1.2-3.8c0-2.5-1.1-4.2-3.4-5.1c-1.2-0.5-2.8-0.7-4.8-0.7h-9.3v69h290.3z"/>
	</g>
	<g id="o_1_">
		<path d="m373.3,43.5c2.3,3,3.4,6.9,3.4,11.7c0,5.1-1.3,9.4-3.9,12.8c-3.1,4-7.4,6-13.1,6c-5.3,0-9.5-1.8-12.5-5.2
			c-2.7-3.4-4.1-7.6-4.1-12.8c0-4.7,1.2-8.6,3.5-12c3-4.2,7.4-6.4,13.2-6.4c365.9,37.6,370.4,39.6,373.3,43.5z m369.2,65.4
			c1.8-2.9,2.8-6.3,2.8-10.2c0-4.1-1.1-7.3-3.2-9.8c-2.1-2.5-5-3.7-8.7-3.7c-3.6,0-6.5,1.2-8.7,3.7c-2.2,2.4-3.4,6.1-3.4,10.8
			c0,3.8,1,7,2.9,9.7c1.9,2.6,5.1,3.9,9.4,3.9c364.4,69.9,367.4,68.4,369.2,65.4z"/>
	</g>
	<g id="d">
		<path d="m418.5,38.6h13.8c4.7,0,8.3,1.7,10.9,5c2.3,3,3.4,6.9,3.4,11.6c0,3.7-0.7,7-2,9.9c-2.4,5.2-6.5,7.8-12.3,7.8h-13.7v38.6z
			 m431.4,69c1.5,0,2.8-0.2,3.8-0.5c1.8-0.6,3.2-1.8,4.4-3.5c0.9-1.4,1.6-3.2,1.9-5.3c0.2-1.3,0.3-2.5,0.3-3.6
			c0-4.3-0.8-7.6-2.5-9.9c-1.7-2.4-4.3-3.5-8-3.5h-8.1v69h431.4z"/>
	</g>
	<g id="y_1_">
		<path d="m489.4,38.6h5.4l9.9,16.5l9.9-16.5h5.5l-13,20.6v73h-4.7v59.1l489.4,38.6z"/>
	</g>
	<g id="w">
		<path d="m54.3,110.6l6.5,28l7.8-28h5l7.8,28l6.5-28h93l84,145h-4.9l-7.9-28.5l-8,28.5h-4.9l-9-34.4h54.3z"/>
	</g>
	<g id="r_2_">
		<path d="m130.9,110.6h15.6c2.6,0,4.7,0.4,6.4,1.1c3.2,1.5,4.8,4.2,4.8,8.1c0,2.1-0.4,3.8-1.3,5.1s-2,2.4-3.6,3.2
			c1.3,0.5,2.4,1.3,3,2.2s1.1,2.3,1.1,4.3l0.2,4.6c0,1.3,0.2,2.3,0.3,2.9c0.3,1.1,0.8,1.8,1.5,2.1v0.8h-5.7
			c-0.2-0.3-0.3-0.7-0.4-1.1s-0.2-1.4-0.2-2.7l-0.3-5.7c-0.1-2.2-0.9-3.8-2.4-4.5c-0.9-0.4-2.2-0.6-4.1-0.6h-10.3v145h-4.7v110.6z
			 m146,126.3c2.1,0,3.8-0.4,5-1.3c1.2-0.9,1.9-2.5,1.9-4.7c0-2.5-0.9-4.1-2.6-5c-0.9-0.5-2.2-0.7-3.7-0.7h-11.1v11.8h146z"/>
	</g>
	<g id="i">
		<path d="m214,110.6h4.7v145h214v110.6z"/>
	</g>
	<g id="t_2_">
		<path d="m302.4,110.6v4.1h-11.6v145h-4.7v-30.3h-11.6v-4.1h302.4z"/>
	</g>
	<g id="e_3_">
		<path d="m348.1,110.6h25v4.2h-20.4v10.5h18.9v4h-18.9v11.7h20.8v4.1h-25.3v110.6z"/>
	</g>
	<g id="s_1_">
		<path d="m422.7,133.9c0.1,2,0.5,3.5,1.3,4.8c1.5,2.3,4.1,3.4,7.9,3.4c1.7,0,3.2-0.2,4.6-0.8c2.7-1,4-2.7,4-5.2
			c0-1.9-0.6-3.2-1.7-4c-1.2-0.8-3-1.5-5.4-2l-4.5-1.1c-3-0.7-5-1.4-6.3-2.3c-2.1-1.4-3.2-3.6-3.2-6.4c0-3.1,1-5.6,3.1-7.6
			c2.1-2,5-3,8.8-3c3.5,0,6.5,0.9,9,2.6c2.5,1.7,3.7,4.5,3.7,8.4h-4.4c-0.2-1.8-0.7-3.3-1.4-4.2c-1.4-1.8-3.7-2.7-6.9-2.7
			c-2.6,0-4.5,0.6-5.7,1.7s-1.7,2.5-1.7,4c0,1.7,0.7,2.9,2,3.7c0.9,0.5,2.9,1.1,6.1,1.9l4.7,1.1c2.3,0.5,4,1.3,5.2,2.2
			c2.1,1.6,3.2,3.9,3.2,7c0,3.8-1.4,6.5-4.1,8.2s-5.8,2.5-9.4,2.5c-4.2,0-7.4-1.1-9.8-3.3c-2.4-2.2-3.5-5.1-3.5-8.8h422.7z"/>
	</g>
	<g id="underscore1">
		<path d="m490.7,151v-2.4h26.7v2.4h490.7z"/>
	</g>
	<g id="l">
		<path d="m62.2,178.6h4.7v30.3h17.3v4.1h62.2v178.6z"/>
	</g>
	<g id="e_2_">
		<path d="m132.1,178.6h25v4.2h-20.4v10.5h18.9v4h-18.9v11.7h20.8v4.1h-25.3v178.6z"/>
	</g>
	<g id="t_1_">
		<path d="m230.4,178.6v4.1h-11.6v213h-4.7v-30.3h-11.6v-4.1h230.4z"/>
	</g>
	<g id="t">
		<path d="m302.4,178.6v4.1h-11.6v213h-4.7v-30.3h-11.6v-4.1h302.4z"/>
	</g>
	<g id="e_1_">
		<path d="m348.1,178.6h25v4.2h-20.4v10.5h18.9v4h-18.9v11.7h20.8v4.1h-25.3v178.6z"/>
	</g>
	<g id="r_1_">
		<path d="m418.9,178.6h15.7c2.6,0,4.7,0.4,6.4,1.1c3.2,1.5,4.8,4.2,4.8,8.1c0,2.1-0.4,3.8-1.3,5.1s-2,2.4-3.6,3.2
			c1.3,0.5,2.4,1.3,3,2.2s1.1,2.3,1.1,4.3l0.2,4.6c0,1.3,0.2,2.3,0.3,2.9c0.3,1.1,0.8,1.8,1.5,2.1v0.8h-5.7
			c-0.2-0.3-0.3-0.7-0.4-1.1s-0.2-1.4-0.2-2.7l-0.3-5.7c-0.1-2.2-0.9-3.8-2.4-4.5c-0.9-0.4-2.2-0.6-4.1-0.6h-10.3v213h-4.7v178.6z
			 m434,194.3c2.1,0,3.8-0.4,5-1.3c1.2-0.9,1.9-2.5,1.9-4.7c0-2.5-0.9-4.1-2.6-5c-0.9-0.5-2.2-0.7-3.7-0.7h-11.1v11.8h434z"/>
	</g>
	<g id="s">
		<path d="m494.7,201.9c0.1,2,0.5,3.5,1.3,4.8c1.5,2.3,4.1,3.4,7.9,3.4c1.7,0,3.2-0.2,4.6-0.8c2.7-1,4-2.7,4-5.2
			c0-1.9-0.6-3.2-1.7-4c-1.2-0.8-3-1.5-5.4-2l-4.5-1.1c-3-0.7-5-1.4-6.3-2.3c-2.1-1.4-3.2-3.6-3.2-6.4c0-3.1,1-5.6,3.1-7.6
			c2.1-2,5-3,8.8-3c3.5,0,6.5,0.9,9,2.6c2.5,1.7,3.7,4.5,3.7,8.4h-4.4c-0.2-1.8-0.7-3.3-1.4-4.2c-1.4-1.8-3.7-2.7-6.9-2.7
			c-2.6,0-4.5,0.6-5.7,1.7c-1.2,1.2-1.7,2.5-1.7,4c0,1.7,0.7,2.9,2,3.7c0.9,0.5,2.9,1.1,6.1,1.9l4.7,1.1c2.3,0.5,4,1.3,5.2,2.2
			c2.1,1.6,3.2,3.9,3.2,7c0,3.8-1.4,6.5-4.1,8.2c-2.7,1.6-5.8,2.5-9.4,2.5c-4.2,0-7.4-1.1-9.8-3.3c-2.4-2.2-3.5-5.1-3.5-8.8h494.7z"
			/>
	</g>
	<g id="o">
		<path d="m373.3,259.5c2.3,3,3.4,6.9,3.4,11.7c0,5.1-1.3,9.4-3.9,12.8c-3.1,4-7.4,6-13.1,6c-5.3,0-9.5-1.8-12.5-5.2
			c-2.7-3.4-4.1-7.6-4.1-12.8c0-4.7,1.2-8.6,3.5-12c3-4.2,7.4-6.4,13.2-6.4c365.9,253.6,370.4,255.6,373.3,259.5z m369.2,281.4
			c1.8-2.9,2.8-6.3,2.8-10.2c0-4.1-1.1-7.3-3.2-9.8c-2.1-2.5-5-3.7-8.7-3.7c-3.6,0-6.5,1.2-8.7,3.7c-2.2,2.4-3.4,6.1-3.4,10.8
			c0,3.8,1,7,2.9,9.7c1.9,2.6,5.1,3.9,9.4,3.9c364.4,285.9,367.4,284.4,369.2,281.4z"/>
	</g>
	<g id="a">
		<path d="m70,254.6h5.3l87.8,289h-5.1l-3.6-10.3h65.6l61.8,289h57l70,254.6z m77.7,274.9l-5.3-15.2l-5.5,15.2h77.7z"/>
	</g>
	<g id="n">
		<path d="m130.3,254.6h5.5l17.2,27.8v-27.8h4.5v289h-5.2l-17.4-27.8v289h-4.5v254.6z"/>
	</g>
	<g id="y">
		<path d="m201.4,254.6h5.4l9.9,16.5l9.9-16.5h5.5l-13,20.6v289h-4.7v-13.9l201.4,254.6z"/>
	</g>
	<g id="m">
		<path d="m271.5,254.6h6.7l9.9,29.1l9.8-29.1h6.6v289h-4.5v-20.3c0-0.7,0-1.9,0-3.5s0-3.4,0-5.2l-9.8,29h-4.6l-9.9-29v1.1
			c0,0.8,0,2.1,0.1,3.9s0.1,3,0.1,3.8v289h-4.5v254.6z"/>
	</g>
	<g id="r">
		<path d="m418.9,254.6h15.7c2.6,0,4.7,0.4,6.4,1.1c3.2,1.5,4.8,4.2,4.8,8.1c0,2.1-0.4,3.8-1.3,5.1s-2,2.4-3.6,3.2
			c1.3,0.5,2.4,1.3,3,2.2s1.1,2.3,1.1,4.3l0.2,4.6c0,1.3,0.2,2.3,0.3,2.9c0.3,1.1,0.8,1.8,1.5,2.1v0.8h-5.7
			c-0.2-0.3-0.3-0.7-0.4-1.1s-0.2-1.4-0.2-2.7l-0.3-5.7c-0.1-2.2-0.9-3.8-2.4-4.5c-0.9-0.4-2.2-0.6-4.1-0.6h-10.3v289h-4.7v254.6z
			 m434,270.3c2.1,0,3.8-0.4,5-1.3c1.2-0.9,1.9-2.5,1.9-4.7c0-2.5-0.9-4.1-2.6-5c-0.9-0.5-2.2-0.7-3.7-0.7h-11.1v11.8h434z"/>
	</g>
	<g id="e">
		<path d="m492.1,254.6h25v4.2h-20.4v10.5h18.9v4h-18.9v11.7h20.8v4.1h-25.3v254.6z"/>
	</g>
</g>
</svg>
