<svg xmlns="http://www.w3.org/2000/svg">
    <symbol id="letters-01" viewBox="0 0 40 40">
        <style>
            .Drop_x0020_Shadow{fill:none;} .Round_x0020_Corners_x0020_2_x0020_pt{fill:#FFFFFF;stroke:#000000;stroke-miterlimit:10;} .Live_x0020_Reflect_x0020_X{fill:none;} .Bevel_x0020_Soft{fill:url(#SVGID_1_);} .Dusk{fill:#FFFFFF;} .Foliage_GS{fill:#FFDD00;} .Pompadour_GS{fill-rule:evenodd;clip-rule:evenodd;fill:#44ADE2;}
        </style>
        <path d="M18.1 7.3H22l9.4 25.8h-3.8l-2.7-7.7H14.8L12 33.1H8.4l9.7-25.8zm5.8 15.2l-4-11.4-4.1 11.4h8.1z" id="letter"/>
    </symbol>
    <symbol id="letters-02" viewBox="0 0 40 40">
        <style>
            .Drop_x0020_Shadow{fill:none;} .Round_x0020_Corners_x0020_2_x0020_pt{fill:#FFFFFF;stroke:#000000;stroke-miterlimit:10;} .Live_x0020_Reflect_x0020_X{fill:none;} .Bevel_x0020_Soft{fill:url(#SVGID_1_);} .Dusk{fill:#FFFFFF;} .Foliage_GS{fill:#FFDD00;} .Pompadour_GS{fill-rule:evenodd;clip-rule:evenodd;fill:#44ADE2;}
        </style>
        <path d="M10.9 7.3H22c3 0 5.2.9 6.5 2.7.8 1.1 1.1 2.3 1.1 3.7 0 1.6-.5 3-1.4 4-.5.6-1.2 1.1-2.1 1.5 1.3.5 2.3 1.1 3 1.7 1.2 1.1 1.7 2.7 1.7 4.7 0 1.7-.5 3.2-1.6 4.5-1.6 2-4.1 3-7.5 3h-11V7.3zm9.8 10.9c1.5 0 2.7-.2 3.5-.6 1.3-.6 2-1.8 2-3.5s-.7-2.8-2.1-3.4c-.8-.3-1.9-.5-3.5-.5h-6.3v8h6.4zm1.2 11.9c2.2 0 3.7-.6 4.6-1.9.6-.8.9-1.7.9-2.8 0-1.9-.8-3.2-2.5-3.8-.9-.4-2.1-.6-3.6-.6h-7v9.1h7.6z" id="letter"/>
    </symbol>
    <symbol id="letters-03" viewBox="0 0 40 40">
        <style>
            .Drop_x0020_Shadow{fill:none;} .Round_x0020_Corners_x0020_2_x0020_pt{fill:#FFFFFF;stroke:#000000;stroke-miterlimit:10;} .Live_x0020_Reflect_x0020_X{fill:none;} .Bevel_x0020_Soft{fill:url(#SVGID_1_);} .Dusk{fill:#FFFFFF;} .Foliage_GS{fill:#FFDD00;} .Pompadour_GS{fill-rule:evenodd;clip-rule:evenodd;fill:#44ADE2;}
        </style>
        <path d="M28 9.2c1.8 1.7 2.8 3.7 3 5.9h-3.4c-.4-1.7-1.1-3-2.3-4-1.1-1-2.7-1.5-4.8-1.5-2.5 0-4.5.9-6.1 2.7-1.5 1.8-2.3 4.5-2.3 8.2 0 3 .7 5.5 2.1 7.4 1.4 1.9 3.5 2.8 6.2 2.8 2.5 0 4.5-1 5.8-3 .7-1 1.2-2.4 1.6-4.1h3.4c-.3 2.7-1.3 5-3 6.8-2 2.2-4.8 3.3-8.2 3.3-3 0-5.5-.9-7.5-2.7-2.7-2.4-4-6.1-4-11.1 0-3.8 1-6.9 3-9.4 2.2-2.6 5.1-4 8.9-4 3.3.1 5.8.9 7.6 2.7z" id="letter"/>
    </symbol>
    <symbol id="letters-04" viewBox="0 0 40 40">
        <style>
            .Drop_x0020_Shadow{fill:none;} .Round_x0020_Corners_x0020_2_x0020_pt{fill:#FFFFFF;stroke:#000000;stroke-miterlimit:10;} .Live_x0020_Reflect_x0020_X{fill:none;} .Bevel_x0020_Soft{fill:url(#SVGID_1_);} .Dusk{fill:#FFFFFF;} .Foliage_GS{fill:#FFDD00;} .Pompadour_GS{fill-rule:evenodd;clip-rule:evenodd;fill:#44ADE2;}
        </style>
        <path d="M9.9 7.3h10.3c3.5 0 6.2 1.3 8.2 3.8 1.7 2.3 2.6 5.2 2.6 8.7 0 2.7-.5 5.2-1.5 7.4-1.8 3.9-4.9 5.9-9.2 5.9H9.9V7.3zm9.6 22.8c1.2 0 2.1-.1 2.9-.4 1.3-.5 2.4-1.3 3.3-2.6.7-1 1.2-2.4 1.5-4 .2-1 .3-1.9.3-2.7 0-3.2-.6-5.7-1.9-7.5-1.2-1.8-3.2-2.7-6-2.7h-6.1V30h6z" id="letter"/>
    </symbol>
    <symbol id="letters-05" viewBox="0 0 40 40">
        <style>
            .Drop_x0020_Shadow{fill:none;} .Round_x0020_Corners_x0020_2_x0020_pt{fill:#FFFFFF;stroke:#000000;stroke-miterlimit:10;} .Live_x0020_Reflect_x0020_X{fill:none;} .Bevel_x0020_Soft{fill:url(#SVGID_1_);} .Dusk{fill:#FFFFFF;} .Foliage_GS{fill:#FFDD00;} .Pompadour_GS{fill-rule:evenodd;clip-rule:evenodd;fill:#44ADE2;}
        </style>
        <path d="M11.2 7.3h18.7v3.2H14.6v7.8h14.2v3H14.6V30h15.6v3.1h-19V7.3z" id="letter"/>
    </symbol>
    <symbol id="letters-06" viewBox="0 0 40 40">
        <style>
            .Drop_x0020_Shadow{fill:none;} .Round_x0020_Corners_x0020_2_x0020_pt{fill:#FFFFFF;stroke:#000000;stroke-miterlimit:10;} .Live_x0020_Reflect_x0020_X{fill:none;} .Bevel_x0020_Soft{fill:url(#SVGID_1_);} .Dusk{fill:#FFFFFF;} .Foliage_GS{fill:#FFDD00;} .Pompadour_GS{fill-rule:evenodd;clip-rule:evenodd;fill:#44ADE2;}
        </style>
        <path d="M11 7.3h17.9v3.2H14.5v7.8h12.7v3.1H14.5v11.7H11V7.3z" id="letter"/>
    </symbol>
    <symbol id="letters-07" viewBox="0 0 40 40">
        <style>
            .Drop_x0020_Shadow{fill:none;} .Round_x0020_Corners_x0020_2_x0020_pt{fill:#FFFFFF;stroke:#000000;stroke-miterlimit:10;} .Live_x0020_Reflect_x0020_X{fill:none;} .Bevel_x0020_Soft{fill:url(#SVGID_1_);} .Dusk{fill:#FFFFFF;} .Foliage_GS{fill:#FFDD00;} .Pompadour_GS{fill-rule:evenodd;clip-rule:evenodd;fill:#44ADE2;}
        </style>
        <path d="M26.1 8c2.5 1.3 4.1 3.7 4.6 7.1h-3.5c-.4-1.9-1.3-3.3-2.6-4.1s-2.9-1.3-4.9-1.3c-2.3 0-4.3.9-5.9 2.7-1.6 1.8-2.4 4.5-2.4 8 0 3.1.7 5.6 2 7.5s3.5 2.9 6.5 2.9c2.3 0 4.2-.7 5.7-2 1.5-1.4 2.3-3.5 2.3-6.6h-8.1v-2.9h11.3v13.8H29l-.8-3.3C27 31.1 26 32 25.1 32.5c-1.5.9-3.4 1.3-5.8 1.3-3 0-5.6-1-7.8-3C9.1 28.3 8 24.9 8 20.6c0-4.3 1.2-7.8 3.5-10.3 2.2-2.4 5-3.7 8.5-3.7 2.3 0 4.4.5 6.1 1.4z" id="letter"/>
    </symbol>
    <symbol id="letters-08" viewBox="0 0 40 40">
        <style>
            .Drop_x0020_Shadow{fill:none;} .Round_x0020_Corners_x0020_2_x0020_pt{fill:#FFFFFF;stroke:#000000;stroke-miterlimit:10;} .Live_x0020_Reflect_x0020_X{fill:none;} .Bevel_x0020_Soft{fill:url(#SVGID_1_);} .Dusk{fill:#FFFFFF;} .Foliage_GS{fill:#FFDD00;} .Pompadour_GS{fill-rule:evenodd;clip-rule:evenodd;fill:#44ADE2;}
        </style>
        <path d="M9.8 7.3h3.5V18h13.3V7.3h3.5v25.8h-3.5V21H13.3v12.1H9.8V7.3z" id="letter"/>
    </symbol>
    <symbol id="letters-09" viewBox="0 0 40 40">
        <style>
            .Drop_x0020_Shadow{fill:none;} .Round_x0020_Corners_x0020_2_x0020_pt{fill:#FFFFFF;stroke:#000000;stroke-miterlimit:10;} .Live_x0020_Reflect_x0020_X{fill:none;} .Bevel_x0020_Soft{fill:url(#SVGID_1_);} .Dusk{fill:#FFFFFF;} .Foliage_GS{fill:#FFDD00;} .Pompadour_GS{fill-rule:evenodd;clip-rule:evenodd;fill:#44ADE2;}
        </style>
        <path d="M18.5 7.3H22v25.8h-3.5V7.3z" id="letter"/>
    </symbol>
    <symbol id="letters-10" viewBox="0 0 40 40">
        <style>
            .Drop_x0020_Shadow{fill:none;} .Round_x0020_Corners_x0020_2_x0020_pt{fill:#FFFFFF;stroke:#000000;stroke-miterlimit:10;} .Live_x0020_Reflect_x0020_X{fill:none;} .Bevel_x0020_Soft{fill:url(#SVGID_1_);} .Dusk{fill:#FFFFFF;} .Foliage_GS{fill:#FFDD00;} .Pompadour_GS{fill-rule:evenodd;clip-rule:evenodd;fill:#44ADE2;}
        </style>
        <path d="M26.5 25.4c0 2.2-.3 3.9-1 5.1-1.2 2.2-3.5 3.3-6.8 3.3-1.9 0-3.6-.5-5-1.6-1.4-1-2.1-2.9-2.1-5.6v-1.8H15v1.8c0 1.4.3 2.5.9 3.2s1.6 1.1 2.9 1.1c1.9 0 3.1-.6 3.7-1.9.4-.8.5-2.3.5-4.4V7.3h3.5v18.1z" id="letter"/>
    </symbol>
    <symbol id="letters-11" viewBox="0 0 40 40">
        <style>
            .Drop_x0020_Shadow{fill:none;} .Round_x0020_Corners_x0020_2_x0020_pt{fill:#FFFFFF;stroke:#000000;stroke-miterlimit:10;} .Live_x0020_Reflect_x0020_X{fill:none;} .Bevel_x0020_Soft{fill:url(#SVGID_1_);} .Dusk{fill:#FFFFFF;} .Foliage_GS{fill:#FFDD00;} .Pompadour_GS{fill-rule:evenodd;clip-rule:evenodd;fill:#44ADE2;}
        </style>
        <path d="M9.6 7.3H13v12.6L25.9 7.3h4.9l-11 10.4 11.3 15.4h-4.6l-9.3-13-4.2 4v9H9.6V7.3z" id="letter"/>
    </symbol>
    <symbol id="letters-12" viewBox="0 0 40 40">
        <style>
            .Drop_x0020_Shadow{fill:none;} .Round_x0020_Corners_x0020_2_x0020_pt{fill:#FFFFFF;stroke:#000000;stroke-miterlimit:10;} .Live_x0020_Reflect_x0020_X{fill:none;} .Bevel_x0020_Soft{fill:url(#SVGID_1_);} .Dusk{fill:#FFFFFF;} .Foliage_GS{fill:#FFDD00;} .Pompadour_GS{fill-rule:evenodd;clip-rule:evenodd;fill:#44ADE2;}
        </style>
        <path d="M13.6 7.3h3.5V30h13v3.1H13.6V7.3z" id="letter"/>
    </symbol>
    <symbol id="letters-13" viewBox="0 0 40 40">
        <style>
            .Drop_x0020_Shadow{fill:none;} .Round_x0020_Corners_x0020_2_x0020_pt{fill:#FFFFFF;stroke:#000000;stroke-miterlimit:10;} .Live_x0020_Reflect_x0020_X{fill:none;} .Bevel_x0020_Soft{fill:url(#SVGID_1_);} .Dusk{fill:#FFFFFF;} .Foliage_GS{fill:#FFDD00;} .Pompadour_GS{fill-rule:evenodd;clip-rule:evenodd;fill:#44ADE2;}
        </style>
        <path d="M7.6 7.3h5L20 29.1l7.4-21.8h5v25.8h-3.3V17.9v-2.6-3.9l-7.4 21.8h-3.5l-7.4-21.8v.8c0 .6 0 1.6.1 2.9s.1 2.2.1 2.9v15.2H7.6V7.3z" id="letter"/>
    </symbol>
    <symbol id="letters-14" viewBox="0 0 40 40">
        <style>
            .Drop_x0020_Shadow{fill:none;} .Round_x0020_Corners_x0020_2_x0020_pt{fill:#FFFFFF;stroke:#000000;stroke-miterlimit:10;} .Live_x0020_Reflect_x0020_X{fill:none;} .Bevel_x0020_Soft{fill:url(#SVGID_1_);} .Dusk{fill:#FFFFFF;} .Foliage_GS{fill:#FFDD00;} .Pompadour_GS{fill-rule:evenodd;clip-rule:evenodd;fill:#44ADE2;}
        </style>
        <path d="M9.7 7.3h4.1l12.9 20.9V7.3H30v25.8h-3.9l-13-20.8v20.8H9.7V7.3z" id="letter"/>
    </symbol>
    <symbol id="letters-15" viewBox="0 0 40 40">
        <style>
            .Drop_x0020_Shadow{fill:none;} .Round_x0020_Corners_x0020_2_x0020_pt{fill:#FFFFFF;stroke:#000000;stroke-miterlimit:10;} .Live_x0020_Reflect_x0020_X{fill:none;} .Bevel_x0020_Soft{fill:url(#SVGID_1_);} .Dusk{fill:#FFFFFF;} .Foliage_GS{fill:#FFDD00;} .Pompadour_GS{fill-rule:evenodd;clip-rule:evenodd;fill:#44ADE2;}
        </style>
        <path d="M30.1 11c1.7 2.3 2.6 5.2 2.6 8.8 0 3.9-1 7.1-2.9 9.6-2.3 3-5.6 4.5-9.8 4.5-4 0-7.1-1.3-9.4-3.9-2-2.5-3-5.7-3-9.6 0-3.5.9-6.5 2.6-9 2.2-3.2 5.5-4.8 9.9-4.8s7.8 1.4 10 4.4zM27 27.4c1.4-2.2 2.1-4.8 2.1-7.6 0-3-.8-5.5-2.4-7.3S23 9.7 20.2 9.7c-2.7 0-4.9.9-6.5 2.8s-2.5 4.5-2.5 8.1c0 2.9.7 5.3 2.2 7.2s3.8 2.9 7 2.9c3 0 5.3-1.1 6.6-3.3z" id="letter"/>
    </symbol>
    <symbol id="letters-16" viewBox="0 0 40 40">
        <style>
            .Drop_x0020_Shadow{fill:none;} .Round_x0020_Corners_x0020_2_x0020_pt{fill:#FFFFFF;stroke:#000000;stroke-miterlimit:10;} .Live_x0020_Reflect_x0020_X{fill:none;} .Bevel_x0020_Soft{fill:url(#SVGID_1_);} .Dusk{fill:#FFFFFF;} .Foliage_GS{fill:#FFDD00;} .Pompadour_GS{fill-rule:evenodd;clip-rule:evenodd;fill:#44ADE2;}
        </style>
        <path d="M10.3 7.3h11.6c2.3 0 4.1.6 5.5 1.9s2.1 3.1 2.1 5.5c0 2-.6 3.8-1.9 5.3-1.3 1.5-3.2 2.2-5.8 2.2h-8.1v10.9h-3.5V7.3zm13.5 3.5c-.8-.4-1.8-.5-3.2-.5h-6.9v8.9h6.9c1.6 0 2.8-.3 3.8-1s1.5-1.8 1.5-3.5c0-1.9-.7-3.2-2.1-3.9z" id="letter"/>
    </symbol>
    <symbol id="letters-17" viewBox="0 0 40 40">
        <style>
            .Drop_x0020_Shadow{fill:none;} .Round_x0020_Corners_x0020_2_x0020_pt{fill:#FFFFFF;stroke:#000000;stroke-miterlimit:10;} .Live_x0020_Reflect_x0020_X{fill:none;} .Bevel_x0020_Soft{fill:url(#SVGID_1_);} .Dusk{fill:#FFFFFF;} .Foliage_GS{fill:#FFDD00;} .Pompadour_GS{fill-rule:evenodd;clip-rule:evenodd;fill:#44ADE2;}
        </style>
        <path d="M32.6 33l-1.8 2.1-4-3c-1 .5-2 .9-3.1 1.3-1.1.3-2.3.5-3.7.5-4 0-7.1-1.3-9.4-3.9-2-2.6-3-5.8-3-9.6 0-3.5.9-6.5 2.6-9 2.2-3.2 5.5-4.8 9.9-4.8C24.7 6.6 28 8 30.2 11c1.7 2.3 2.6 5.2 2.6 8.8 0 1.7-.2 3.3-.6 4.8-.6 2.3-1.7 4.3-3.1 5.7l3.5 2.7zm-10.1-2.4c.6-.1 1.2-.3 1.7-.6l-2.8-2.2 1.8-2.2 3.4 2.6c1.1-1.2 1.8-2.6 2.2-4.1.4-1.5.6-3 .6-4.3 0-3-.8-5.5-2.4-7.3s-3.8-2.8-6.5-2.8c-2.8 0-5 .9-6.6 2.7-1.6 1.8-2.4 4.5-2.4 8.2 0 3.1.8 5.6 2.4 7.4 1.6 1.8 3.9 2.8 6.9 2.8.4-.1 1.1-.1 1.7-.2z" id="letter"/>
    </symbol>
    <symbol id="letters-18" viewBox="0 0 40 40">
        <style>
            .Drop_x0020_Shadow{fill:none;} .Round_x0020_Corners_x0020_2_x0020_pt{fill:#FFFFFF;stroke:#000000;stroke-miterlimit:10;} .Live_x0020_Reflect_x0020_X{fill:none;} .Bevel_x0020_Soft{fill:url(#SVGID_1_);} .Dusk{fill:#FFFFFF;} .Foliage_GS{fill:#FFDD00;} .Pompadour_GS{fill-rule:evenodd;clip-rule:evenodd;fill:#44ADE2;}
        </style>
        <path d="M10.1 7.3h11.7c1.9 0 3.5.3 4.8.9 2.4 1.1 3.6 3.1 3.6 6.1 0 1.5-.3 2.8-1 3.8s-1.5 1.8-2.7 2.4c1 .4 1.8.9 2.3 1.6s.8 1.8.9 3.3l.1 3.5c0 1 .1 1.7.2 2.2.2.8.6 1.3 1.1 1.6v.6h-4.3c-.1-.2-.2-.5-.3-.9-.1-.4-.1-1-.2-2l-.2-4.3c-.1-1.7-.7-2.8-1.8-3.4-.6-.3-1.7-.5-3.1-.5h-7.7v11.1H10v-26zm11.4 11.8c1.6 0 2.9-.3 3.8-1 .9-.7 1.4-1.8 1.4-3.6s-.6-3.1-1.9-3.8c-.7-.4-1.6-.5-2.8-.5h-8.3V19h7.8z" id="letter"/>
    </symbol>
    <symbol id="letters-19" viewBox="0 0 40 40">
        <style>
            .Drop_x0020_Shadow{fill:none;} .Round_x0020_Corners_x0020_2_x0020_pt{fill:#FFFFFF;stroke:#000000;stroke-miterlimit:10;} .Live_x0020_Reflect_x0020_X{fill:none;} .Bevel_x0020_Soft{fill:url(#SVGID_1_);} .Dusk{fill:#FFFFFF;} .Foliage_GS{fill:#FFDD00;} .Pompadour_GS{fill-rule:evenodd;clip-rule:evenodd;fill:#44ADE2;}
        </style>
        <path d="M13 24.8c.1 1.5.4 2.7 1 3.6 1.1 1.7 3.1 2.6 5.9 2.6 1.3 0 2.4-.2 3.5-.6 2-.7 3-2 3-3.9 0-1.4-.4-2.4-1.3-3-.9-.6-2.2-1.1-4.1-1.5l-3.4-.8c-2.2-.5-3.8-1.1-4.7-1.7-1.6-1.1-2.4-2.7-2.4-4.8 0-2.3.8-4.2 2.3-5.7 1.6-1.5 3.8-2.2 6.6-2.2 2.6 0 4.9.7 6.7 2s2.8 3.4 2.8 6.3h-3.3c-.2-1.4-.5-2.4-1.1-3.2-1-1.3-2.8-2-5.2-2-2 0-3.4.4-4.3 1.3-.9.9-1.3 1.9-1.3 3 0 1.3.5 2.2 1.5 2.8.7.4 2.2.8 4.5 1.4l3.5.8c1.7.4 3 .9 3.9 1.6 1.6 1.2 2.4 3 2.4 5.3 0 2.9-1 4.9-3 6.1-2 1.2-4.4 1.8-7.1 1.8-3.1 0-5.6-.8-7.4-2.5-1.8-1.6-2.6-3.8-2.6-6.6H13z" id="letter"/>
    </symbol>
    <symbol id="letters-20" viewBox="0 0 40 40">
        <style>
            .Drop_x0020_Shadow{fill:none;} .Round_x0020_Corners_x0020_2_x0020_pt{fill:#FFFFFF;stroke:#000000;stroke-miterlimit:10;} .Live_x0020_Reflect_x0020_X{fill:none;} .Bevel_x0020_Soft{fill:url(#SVGID_1_);} .Dusk{fill:#FFFFFF;} .Foliage_GS{fill:#FFDD00;} .Pompadour_GS{fill-rule:evenodd;clip-rule:evenodd;fill:#44ADE2;}
        </style>
        <path d="M30.9 7.3v3.1h-8.7v22.7h-3.5V10.3H10v-3h20.9z" id="letter"/>
    </symbol>
    <symbol id="letters-21" viewBox="0 0 40 40">
        <style>
            .Drop_x0020_Shadow{fill:none;} .Round_x0020_Corners_x0020_2_x0020_pt{fill:#FFFFFF;stroke:#000000;stroke-miterlimit:10;} .Live_x0020_Reflect_x0020_X{fill:none;} .Bevel_x0020_Soft{fill:url(#SVGID_1_);} .Dusk{fill:#FFFFFF;} .Foliage_GS{fill:#FFDD00;} .Pompadour_GS{fill-rule:evenodd;clip-rule:evenodd;fill:#44ADE2;}
        </style>
        <path d="M12.4 7.3v16c0 1.9.4 3.4 1.1 4.7 1.1 1.9 2.8 2.8 5.3 2.8 3 0 5-1 6.1-3 .6-1.1.9-2.6.9-4.4v-16h3.5v14.5c0 3.2-.4 5.6-1.3 7.3-1.6 3.1-4.6 4.7-8.9 4.7-4.4 0-7.3-1.6-8.9-4.7-.9-1.7-1.3-4.2-1.3-7.3V7.3h3.5z" id="letter"/>
    </symbol>
    <symbol id="letters-22" viewBox="0 0 40 40">
        <style>
            .Drop_x0020_Shadow{fill:none;} .Round_x0020_Corners_x0020_2_x0020_pt{fill:#FFFFFF;stroke:#000000;stroke-miterlimit:10;} .Live_x0020_Reflect_x0020_X{fill:none;} .Bevel_x0020_Soft{fill:url(#SVGID_1_);} .Dusk{fill:#FFFFFF;} .Foliage_GS{fill:#FFDD00;} .Pompadour_GS{fill-rule:evenodd;clip-rule:evenodd;fill:#44ADE2;}
        </style>
        <path d="M13 7.3l7.4 22 7.3-22h3.9l-9.4 25.8h-3.7L9.1 7.3H13z" id="letter"/>
    </symbol>
    <symbol id="letters-23" viewBox="0 0 40 40">
        <style>
            .Drop_x0020_Shadow{fill:none;} .Round_x0020_Corners_x0020_2_x0020_pt{fill:#FFFFFF;stroke:#000000;stroke-miterlimit:10;} .Live_x0020_Reflect_x0020_X{fill:none;} .Bevel_x0020_Soft{fill:url(#SVGID_1_);} .Dusk{fill:#FFFFFF;} .Foliage_GS{fill:#FFDD00;} .Pompadour_GS{fill-rule:evenodd;clip-rule:evenodd;fill:#44ADE2;}
        </style>
        <path d="M7.4 7.3l4.9 21 5.8-21h3.8l5.9 21 4.9-21h3.8l-6.8 25.8H26l-6-21.4-6 21.4h-3.7L3.6 7.3h3.8z" id="letter"/>
    </symbol>
    <symbol id="letters-24" viewBox="0 0 40 40">
        <style>
            .Drop_x0020_Shadow{fill:none;} .Round_x0020_Corners_x0020_2_x0020_pt{fill:#FFFFFF;stroke:#000000;stroke-miterlimit:10;} .Live_x0020_Reflect_x0020_X{fill:none;} .Bevel_x0020_Soft{fill:url(#SVGID_1_);} .Dusk{fill:#FFFFFF;} .Foliage_GS{fill:#FFDD00;} .Pompadour_GS{fill-rule:evenodd;clip-rule:evenodd;fill:#44ADE2;}
        </style>
        <path d="M12.9 33.1H8.7l9.1-13.2L9.3 7.3h4.4l6.5 9.9 6.5-9.9h4.2l-8.6 12.6 9 13.2H27l-7-10.6-7.1 10.6z" id="letter"/>
    </symbol>
    <symbol id="letters-25" viewBox="0 0 40 40">
        <style>
            .Drop_x0020_Shadow{fill:none;} .Round_x0020_Corners_x0020_2_x0020_pt{fill:#FFFFFF;stroke:#000000;stroke-miterlimit:10;} .Live_x0020_Reflect_x0020_X{fill:none;} .Bevel_x0020_Soft{fill:url(#SVGID_1_);} .Dusk{fill:#FFFFFF;} .Foliage_GS{fill:#FFDD00;} .Pompadour_GS{fill-rule:evenodd;clip-rule:evenodd;fill:#44ADE2;}
        </style>
        <path d="M9.2 7.3h4.1l7.4 12.4 7.4-12.4h4.1l-9.8 15.4v10.4h-3.5V22.7L9.2 7.3z" id="letter"/>
    </symbol>
    <symbol id="letters-26" viewBox="0 0 40 40">
        <style>
            .Drop_x0020_Shadow{fill:none;} .Round_x0020_Corners_x0020_2_x0020_pt{fill:#FFFFFF;stroke:#000000;stroke-miterlimit:10;} .Live_x0020_Reflect_x0020_X{fill:none;} .Bevel_x0020_Soft{fill:url(#SVGID_1_);} .Dusk{fill:#FFFFFF;} .Foliage_GS{fill:#FFDD00;} .Pompadour_GS{fill-rule:evenodd;clip-rule:evenodd;fill:#44ADE2;}
        </style>
        <path d="M8.7 30.2l15.9-19.8H9.9V7.3h19.2v3L13.1 30h16v3.1H8.7v-2.9z" id="letter"/>
    </symbol>
</svg>
